<svg width="83" height="83" viewBox="0 0 83 83" fill="none" xmlns="http://www.w3.org/2000/svg">
<circle cx="41.5" cy="41.5" r="40.5" stroke="#FCC21D" stroke-width="2"/>
<path d="M30.5344 48.3812L31.2384 47.0908L32.3713 47.7089L31.6673 48.9993L30.5344 48.3812Z" fill="#FCC21D"/>
<path d="M36.9245 39.3426C37.28 38.6916 37.9961 38.3032 38.7284 38.36L38.8206 37.0729C37.5884 36.9864 36.3877 37.6329 35.7923 38.7252L31.94 45.7884L33.0729 46.4058L36.9245 39.3426Z" fill="#FCC21D"/>
<path d="M62 23.5161C62 21.0258 59.9735 19 57.4839 19H56.5716L43.6684 31.9032L44.9587 33.1935L42.3058 35.8465C41.2665 34.9665 39.9652 34.4839 38.5884 34.4839C36.6465 34.4839 34.8587 35.4658 33.7961 37.0645H22V59H62V37.0645H49.3639L62 24.4284V23.5161ZM60.7097 23.5161C58.931 23.5161 57.4839 22.069 57.4839 20.2903C59.2626 20.2903 60.7097 21.7374 60.7097 23.5161ZM59.8774 24.7265L51.0323 33.5716L47.4284 29.9677L56.2735 21.1226C56.6155 22.9458 58.0542 24.3845 59.8774 24.7265ZM46.5161 30.88L50.12 34.4839L49.0968 35.5071L45.4929 31.9032L46.5161 30.88ZM46.8942 35.129L42.4013 39.6219C41.8845 39.5232 41.4768 39.1148 41.3781 38.5994L45.871 34.1058L46.8942 35.129ZM30.9426 42.2258H29.7419V38.3548H33.0535L30.9426 42.2258ZM30.2387 43.5161L28.1277 47.3871H27.1613V43.5161H30.2387ZM25.871 47.3871H23.2903V43.5161H25.871V47.3871ZM27.4516 48.6774C27.2632 49.1303 27.1613 49.6174 27.1613 50.109C27.1613 51.0419 27.5077 51.8935 28.0761 52.5484H23.2903V48.6774H27.4516ZM32.3226 53.8387V57.7097H27.1613V53.8387H32.3226ZM51.6774 43.5161V47.3871H46.5161V43.5161H51.6774ZM49.0968 52.5484V48.6774H54.2581V52.5484H49.0968ZM42.6452 52.5484V48.6774H47.8064V52.5484H42.6452ZM45.2258 47.3871H43.6477C44.2594 47.0303 44.7929 46.5742 45.2258 46.04V47.3871ZM41.3052 48.6774H41.3548V52.5484H34.2071L41.3052 48.6774ZM33.6129 53.8387H38.7742V57.7097H33.6129V53.8387ZM40.0645 53.8387H45.2258V57.7097H40.0645V53.8387ZM46.5161 53.8387H51.6774V57.7097H46.5161V53.8387ZM52.9677 53.8387H58.129V57.7097H52.9677V53.8387ZM55.5484 52.5484V48.6774H60.7097V52.5484H55.5484ZM59.4194 47.3871V43.5161H60.7097V47.3871H59.4194ZM58.129 47.3871H52.9677V43.5161H58.129V47.3871ZM49.0968 42.2258V38.3548H54.2581V42.2258H49.0968ZM47.8064 42.2258H46.5071C46.4658 40.9174 45.9935 39.6858 45.1535 38.6942L45.4929 38.3548H47.8064V42.2258ZM34.6587 38.1071C35.4439 36.6677 36.9497 35.7742 38.5884 35.7742C39.6206 35.7742 40.5987 36.1226 41.391 36.7613L40.0645 38.0877V38.3548C40.0645 39.7781 41.2219 40.9355 42.6452 40.9355H42.9123L44.2381 39.6097C44.8774 40.4013 45.2258 41.3794 45.2258 42.4116C45.2258 44.0503 44.3316 45.5561 42.8935 46.3413L32.0594 52.2503C31.7013 52.4452 31.2974 52.5484 30.891 52.5484C29.5458 52.5484 28.4516 51.4542 28.4516 50.109C28.4516 49.7026 28.5548 49.2987 28.7497 48.9406L34.6587 38.1071ZM28.4516 38.3548V42.2258H23.2903V38.3548L28.4516 38.3548ZM23.2903 53.8387H25.871V57.7097H23.2903V53.8387ZM59.4194 57.7097V53.8387H60.7097V57.7097H59.4194ZM60.7097 42.2258H55.5484V38.3548H60.7097V42.2258ZM46.7832 37.0645L47.8064 36.0413L48.8297 37.0645H46.7832Z" fill="#FCC21D"/>
</svg>
