<svg width="83" height="83" viewBox="0 0 83 83" fill="none" xmlns="http://www.w3.org/2000/svg">
<circle cx="41.5" cy="41.5" r="40.5" stroke="#FCC21D" stroke-width="2"/>
<path d="M61.9782 38.1096C62.9483 36.6327 63.4573 34.9303 63.4573 33.1405C63.4573 30.764 62.5459 28.5166 60.8908 26.812C59.5069 25.3868 57.7287 24.469 55.7963 24.1649C55.8806 23.7644 55.923 23.3547 55.923 22.9387C55.9231 19.6641 53.259 17 49.9843 17C46.7096 17 44.0456 19.6641 44.0456 22.9387C44.0456 23.64 44.1668 24.3245 44.4019 24.9693C39.8491 25.2362 36.2266 29.0248 36.2266 33.6433C36.2266 35.7971 36.9993 37.8185 38.4167 39.4088C37.7845 40.5334 37.4533 41.7962 37.4533 43.1006C37.4533 47.2667 40.8426 50.656 45.0088 50.656C46.8407 50.656 48.5849 49.986 49.9375 48.8226V60.2422H40.6211V56.9877C41.6565 56.5177 42.3789 55.4747 42.3789 54.2656C42.3789 52.6179 41.0384 51.2773 39.3906 51.2773H21.9883C20.3405 51.2773 19 52.6179 19 54.2656C19 55.4748 19.7224 56.5178 20.7578 56.9877V61.1211C20.7578 61.6065 21.1514 62 21.6367 62H25.1523C25.6377 62 26.0312 61.6065 26.0312 61.1211V57.2539H35.3477V60.2422H34.5127C34.0274 60.2422 33.6338 60.6357 33.6338 61.1211C33.6338 61.6065 34.0274 62 34.5127 62H54.7715C55.2568 62 55.6504 61.6065 55.6504 61.1211C55.6504 60.6357 55.2568 60.2422 54.7715 60.2422H51.6953V48.8513C53.027 49.9969 54.7436 50.6561 56.5528 50.6561C60.6593 50.6561 64 47.3153 64 43.2089C64 41.3025 63.2716 39.4847 61.9782 38.1096ZM24.2734 60.2422H22.5156V57.2539H24.2734V60.2422ZM38.8633 60.2422H37.1055V57.2539H38.8633V60.2422ZM39.3906 55.4961H36.2266H25.1523H21.9883C21.3098 55.4961 20.7578 54.9441 20.7578 54.2656C20.7578 53.5871 21.3098 53.0352 21.9883 53.0352H39.3906C40.0691 53.0352 40.6211 53.5871 40.6211 54.2656C40.6211 54.9441 40.0691 55.4961 39.3906 55.4961ZM56.5528 48.8983C54.5671 48.8983 52.7268 47.8583 51.6953 46.1697V42.0753C51.7025 42.0686 51.71 42.0626 51.717 42.0557L56.712 37.0607C57.0552 36.7175 57.0552 36.1609 56.712 35.8176C56.3688 35.4745 55.8125 35.4744 55.469 35.8176L51.6953 39.5914V31.3909C51.6953 30.9054 51.3017 30.512 50.8164 30.512C50.3311 30.512 49.9375 30.9054 49.9375 31.3909V33.6716L49.2372 32.9713C48.8941 32.6281 48.3377 32.6281 47.9942 32.9713C47.6509 33.3145 47.6509 33.871 47.9942 34.2143L49.9375 36.1575V41.7944L47.5328 39.3898C47.532 39.389 47.5312 39.3881 47.5304 39.3873L45.4064 37.2633C45.0631 36.9201 44.5067 36.9201 44.1634 37.2633C43.8201 37.6065 43.8201 38.163 44.1634 38.5062L45.4689 39.8117L43.0828 41.116C42.6569 41.3488 42.5004 41.8828 42.7332 42.3087C42.8928 42.6009 43.1942 42.7663 43.5051 42.7663C43.6476 42.7663 43.7922 42.7316 43.926 42.6584L46.7641 41.1069L49.9375 44.2804V46.151C48.8828 47.8509 47.0143 48.8982 45.0088 48.8982C41.8119 48.8982 39.2111 46.2975 39.2111 43.1006C39.2111 41.912 39.5694 40.7687 40.2472 39.7945C40.4947 39.4389 40.4461 38.9559 40.1326 38.6567C38.7474 37.3346 37.9844 35.5541 37.9844 33.6433C37.9844 29.8215 41.0937 26.7122 44.9155 26.7122C45.1924 26.7122 45.4724 26.7301 45.7714 26.7669C46.1187 26.8095 46.4574 26.6428 46.6352 26.3422C46.8131 26.0414 46.796 25.6639 46.5916 25.3805C46.0759 24.6656 45.8033 23.8212 45.8033 22.9389C45.8033 20.6335 47.6789 18.758 49.9843 18.758C52.2895 18.758 54.1651 20.6335 54.1651 22.9389C54.1651 23.5116 54.051 24.0668 53.8262 24.5893C53.7113 24.8564 53.7359 25.1629 53.8918 25.4082C54.0477 25.6535 54.3149 25.8059 54.6055 25.8152C58.5834 25.942 61.6994 29.1597 61.6994 33.1405C61.6994 34.801 61.156 36.3681 60.1282 37.6726C59.8364 38.043 59.8888 38.5779 60.2472 38.8844C61.5152 39.9687 62.2422 41.545 62.2422 43.2088C62.2422 46.3461 59.6899 48.8983 56.5528 48.8983Z" fill="#FCC21D"/>
<path d="M58.9954 60.4997C58.8321 60.3362 58.6053 60.2422 58.3741 60.2422C58.1429 60.2422 57.9161 60.3362 57.7528 60.4997C57.5893 60.6632 57.4952 60.8899 57.4952 61.1211C57.4952 61.3522 57.5892 61.579 57.7528 61.7425C57.9161 61.906 58.1429 62 58.3741 62C58.6053 62 58.8321 61.906 58.9954 61.7425C59.1589 61.579 59.2531 61.3522 59.2531 61.1211C59.2531 60.8899 59.159 60.6632 58.9954 60.4997Z" fill="#FCC21D"/>
<path d="M28.1991 32.1159C26.8935 31.7232 25.5345 32.1257 24.6447 33.0427C24.394 32.7838 24.102 32.5625 23.7755 32.387C22.945 31.9405 21.9901 31.8443 21.0872 32.1159C20.6225 32.2557 20.359 32.7459 20.4988 33.2108C20.6385 33.6754 21.1289 33.9388 21.5936 33.7991C22.047 33.6628 22.5263 33.711 22.9433 33.9352C23.3603 34.1593 23.6651 34.5324 23.8015 34.9857C23.9132 35.3572 24.2552 35.6115 24.6431 35.6115C25.031 35.6115 25.373 35.3572 25.4847 34.9858C25.7663 34.05 26.7568 33.5177 27.6926 33.7992C28.1575 33.939 28.6476 33.6756 28.7875 33.2108C28.9273 32.7459 28.6638 32.2557 28.1991 32.1159Z" fill="#FCC21D"/>
<path d="M33.8059 25.6331C32.9032 25.3615 31.9483 25.4576 31.1177 25.904C30.7918 26.0792 30.5004 26.3001 30.25 26.5583C29.9997 26.3001 29.7083 26.0792 29.3824 25.904C28.5517 25.4576 27.5967 25.3614 26.6942 25.6331C26.2293 25.7729 25.9659 26.2631 26.1057 26.728C26.2456 27.1929 26.7361 27.4561 27.2006 27.3164C27.6537 27.1801 28.1331 27.2283 28.5501 27.4525C28.9672 27.6766 29.272 28.0497 29.4084 28.5031C29.5201 28.8746 29.8622 29.1288 30.25 29.1288C30.6379 29.1288 30.98 28.8746 31.0917 28.5031C31.2281 28.0498 31.5329 27.6767 31.9499 27.4525C32.3669 27.2284 32.8462 27.1801 33.2995 27.3164C33.7643 27.4562 34.2543 27.1928 34.3943 26.728C34.5342 26.2632 34.2708 25.773 33.8059 25.6331Z" fill="#FCC21D"/>
<path d="M44.9155 28.4993H44.9087C44.4233 28.4993 44.0332 28.8928 44.0332 29.3782C44.0332 29.8636 44.4302 30.2571 44.9155 30.2571C45.4009 30.2571 45.7944 29.8636 45.7944 29.3782C45.7944 28.8928 45.401 28.4993 44.9155 28.4993Z" fill="#FCC21D"/>
<path d="M42.4342 30.0648C42.0829 29.7298 41.5265 29.7432 41.1916 30.0945C40.2758 31.0552 39.7715 32.3156 39.7715 33.6433C39.7715 34.1287 40.1651 34.5222 40.6504 34.5222C41.1357 34.5222 41.5293 34.1287 41.5293 33.6433C41.5293 32.7693 41.8612 31.9397 42.464 31.3074C42.799 30.956 42.7856 30.3997 42.4342 30.0648Z" fill="#FCC21D"/>
</svg>
