<svg width="83" height="83" viewBox="0 0 83 83" fill="none" xmlns="http://www.w3.org/2000/svg">
<circle cx="41.5" cy="41.5" r="40.5" stroke="#FCC21D" stroke-width="2"/>
<path d="M42 19C32.626 19 25 26.6227 25 35.9926C25 39.0773 26.384 42.3948 26.442 42.5348C26.889 43.5953 27.771 45.2426 28.407 46.2082L40.063 63.8615C40.54 64.5852 41.246 65 42 65C42.754 65 43.46 64.5852 43.937 63.8625L55.594 46.2082C56.231 45.2426 57.112 43.5953 57.559 42.5348C57.617 42.3958 59 39.0783 59 35.9926C59 26.6227 51.374 19 42 19ZM55.715 41.7591C55.316 42.7097 54.495 44.242 53.924 45.1077L42.267 62.762C42.037 63.1108 41.964 63.1108 41.734 62.762L30.077 45.1077C29.506 44.242 28.685 42.7087 28.286 41.7581C28.269 41.7171 27 38.6635 27 35.9926C27 27.7252 33.729 20.9991 42 20.9991C50.271 20.9991 57 27.7252 57 35.9926C57 38.6675 55.728 41.7291 55.715 41.7591Z" fill="#FCC21D"/>
<path d="M42 26.9976C37.037 26.9976 33 31.0338 33 35.9936C33 40.9535 37.037 44.9897 42 44.9897C46.963 44.9897 51 40.9535 51 35.9936C51 31.0338 46.963 26.9976 42 26.9976ZM42 42.9906C38.141 42.9906 35 39.852 35 35.9936C35 32.1353 38.141 28.9967 42 28.9967C45.859 28.9967 49 32.1353 49 35.9936C49 39.852 45.859 42.9906 42 42.9906Z" fill="#FCC21D"/>
</svg>
