<svg width="83" height="83" viewBox="0 0 83 83" fill="none" xmlns="http://www.w3.org/2000/svg">
<circle cx="41.5" cy="41.5" r="40.5" stroke="#FCC21D" stroke-width="2"/>
<path d="M65.692 53.4736L57.8928 45.6755C57.0566 44.8347 55.9186 44.3634 54.7327 44.3667C54.4275 44.3667 54.123 44.3977 53.824 44.4592C51.9289 41.9179 50.9031 38.8336 50.8989 35.6636C50.8989 29.7423 48.5464 24.0635 44.3588 19.8765C41.8818 17.3863 38.5114 15.9905 34.9988 16C27.6999 16 21.7618 21.9374 21.7618 29.2353C21.7612 32.4514 22.9323 35.5576 25.0563 37.9728L26.2081 36.9606C21.941 32.1062 22.4177 24.7122 27.2727 20.4457C31.9082 16.3721 38.9106 16.5975 43.2745 20.9608C47.1744 24.8602 49.3654 30.149 49.3654 35.6636C49.3714 38.874 47.438 41.7703 44.4706 42.9963C44.0796 43.1587 43.8942 43.6073 44.0566 43.9983C44.0732 44.0381 44.0931 44.0765 44.116 44.113L44.8828 45.3298C44.9848 45.4916 45.1435 45.6095 45.328 45.6602C47.0963 46.145 48.7575 46.9585 50.2247 48.0581C50.0998 48.6633 50.1013 49.2876 50.229 49.8922L51.7293 49.5745C51.5236 48.6031 51.8232 47.5935 52.5254 46.8913L52.6571 46.7596C53.7709 45.6457 55.5657 45.6099 56.7231 46.6785C55.647 46.7499 54.6337 47.2109 53.873 47.9754L53.7414 48.107C53.3627 48.4852 53.0552 48.9286 52.8338 49.4158L54.2297 50.0509C54.3751 49.7309 54.577 49.4397 54.8257 49.1913L54.9574 49.0596C56.1034 47.9139 57.9612 47.9134 59.1077 49.0587L59.794 49.7449C58.7164 49.8154 57.7017 50.2767 56.94 51.0421L56.8085 51.1736C56.6714 51.3108 56.5432 51.4567 56.425 51.6105L57.6409 52.5449C57.7186 52.4439 57.8027 52.348 57.8928 52.258L58.0244 52.1263C59.1383 51.0124 60.9331 50.9766 62.0905 52.0451C61.0143 52.1165 60.001 52.5776 59.2403 53.3421L59.1087 53.4738C57.3652 55.2185 57.3665 58.047 59.1087 59.793L59.2403 59.9245C60.9855 61.6696 63.8151 61.6696 65.5604 59.9246L65.6921 59.7929C67.4363 58.0481 67.4355 55.2193 65.692 53.4737L65.692 53.4736ZM51.5727 45.6754L51.441 45.8071C51.2039 46.0444 50.9941 46.3075 50.8155 46.5914C49.3585 45.5553 47.7392 44.7688 46.0239 44.2643L45.8748 44.0276C47.6282 43.0987 49.0442 41.641 49.9219 39.8616C50.4207 41.7213 51.2453 43.4779 52.3573 45.0498C52.0732 45.2284 51.8101 45.4383 51.5727 45.6754V45.6754ZM64.6077 58.7087L64.476 58.8404C63.3296 59.9866 61.471 59.9865 60.3247 58.8403L60.1931 58.7088C59.0466 57.5628 59.046 55.7046 60.1922 54.5582C60.1924 54.558 60.1926 54.5578 60.1931 54.5579L60.3247 54.4263C61.4711 53.2801 63.3297 53.2802 64.4761 54.4264L64.6077 54.5579H64.6077C65.754 55.7042 65.754 57.5625 64.6077 58.7087V58.7087Z" fill="#FCC21D"/>
<path d="M27.6714 34.1756L28.6627 33.1844L29.8786 34.4001L28.1206 36.158L29.2049 37.2423L30.963 35.4844L31.9544 36.4756L33.0387 35.3913L32.0474 34.4001L33.2633 33.1844L34.4792 34.4001L33.4879 35.3913L34.5723 36.4756L35.5636 35.4844L36.7795 36.7001L36.555 36.9246L37.6393 38.0089L37.8639 37.7844L38.8553 38.7756L39.9396 37.6913L38.9483 36.7001L40.1642 35.4844L41.3801 36.7001L40.3888 37.6913L41.4732 38.7756L42.4645 37.7844L44.9894 40.3089L46.0737 39.2246L43.5489 36.7001L44.7648 35.4844L46.5229 37.2423L47.6073 36.158L45.8492 34.4001L46.8405 33.4089L45.7562 32.3246L44.7648 33.3159L43.5489 32.1001L44.7648 30.8844L45.7562 31.8756L46.8405 30.7913L45.8492 29.8001L46.8405 28.8089L45.7562 27.7246L44.7648 28.7159L43.5489 27.5001L44.5402 26.509L43.4559 25.4246L42.4645 26.4159L41.2486 25.2001L43.0067 23.4423L41.9223 22.358L40.1642 24.1159L38.9483 22.9001L39.9396 21.909L38.8553 20.8247L37.8639 21.8159L36.648 20.6001L37.6393 19.609L36.555 18.5247L35.5636 19.5159L34.5723 18.5247L33.4879 19.609L34.4792 20.6001L33.2633 21.8159L31.5052 20.058L30.4209 21.1423L32.1789 22.9001L30.963 24.1159L29.2049 22.358L28.1206 23.4423L29.8786 25.2001L28.6627 26.4159L26.9046 24.658L25.8203 25.7423L27.5783 27.5001L26.3624 28.7159L25.3711 27.7246L24.2867 28.8089L25.278 29.8001L24.2867 30.7913L25.3711 31.8756L26.3624 30.8844L27.5783 32.1001L26.587 33.0913L27.6714 34.1756ZM30.963 33.3159L29.7471 32.1001L30.963 30.8844L32.1789 32.1001L30.963 33.3159ZM37.8639 31.0159L36.648 29.8001L37.8639 28.5844L39.0798 29.8001L37.8639 31.0159ZM40.1642 30.8844L41.3801 32.1001L40.1642 33.3159L38.9483 32.1001L40.1642 30.8844ZM35.5636 28.7159L34.3477 27.5001L35.5636 26.2844L36.7795 27.5001L35.5636 28.7159ZM34.4792 29.8001L33.2633 31.0159L32.0474 29.8001L33.2633 28.5844L34.4792 29.8001ZM34.3477 32.1001L35.5636 30.8844L36.7795 32.1001L35.5636 33.3159L34.3477 32.1001ZM37.8639 35.6159L36.648 34.4001L37.8639 33.1844L39.0798 34.4001L37.8639 35.6159ZM43.6804 34.4001L42.4645 35.6159L41.2486 34.4001L42.4645 33.1844L43.6804 34.4001ZM43.6804 29.8001L42.4645 31.0159L41.2486 29.8001L42.4645 28.5844L43.6804 29.8001ZM41.3801 27.5001L40.1642 28.7159L38.9483 27.5001L40.1642 26.2844L41.3801 27.5001ZM39.0798 25.2001L37.8639 26.4159L36.648 25.2001L37.8639 23.9844L39.0798 25.2001ZM35.5636 21.6844L36.7795 22.9001L35.5636 24.1159L34.3477 22.9001L35.5636 21.6844ZM33.2633 23.9844L34.4792 25.2001L33.2633 26.4159L32.0474 25.2001L33.2633 23.9844ZM30.963 26.2844L32.1789 27.5001L30.963 28.7159L29.7471 27.5001L30.963 26.2844ZM27.4468 29.8001L28.6627 28.5844L29.8786 29.8001L28.6627 31.0159L27.4468 29.8001Z" fill="#FCC21D"/>
<path d="M34.7459 46.7401C36.3119 45.7619 38.2232 45.5052 39.9918 46.0354L41.9687 46.6286C42.2979 47.6306 42.4653 48.6787 42.4646 49.7334H43.9981C43.9967 43.3835 38.8474 38.2369 32.4966 38.2383C26.1459 38.2396 20.9987 43.3883 21 49.7383C21.0013 56.0882 26.1507 61.2347 32.5015 61.2334C34.85 61.2329 37.142 60.5134 39.0694 59.1717L38.1921 57.914C37.2378 58.5805 36.1734 59.0734 35.0479 59.3701L33.9671 58.1355C32.5247 56.487 31.7298 54.3712 31.7299 52.181C31.729 51.1085 31.9985 50.0531 32.5134 49.1123C33.7755 49.5843 34.9872 50.1816 36.1301 50.8953L38.9913 52.6836L39.8041 51.3833L36.9428 49.595C35.8293 48.9002 34.655 48.3079 33.4344 47.8254C33.821 47.4065 34.2621 47.0415 34.7459 46.7401ZM41.1442 44.7804L40.4327 44.5668C38.2416 43.9098 35.8736 44.2278 33.9336 45.4396C33.1496 45.9283 32.458 46.5512 31.8904 47.28C31.2269 47.0741 30.5505 46.9002 29.867 46.7587C31.4846 44.1724 33.7344 42.0409 36.4043 40.565C38.3987 41.4204 40.0619 42.8996 41.1442 44.7804ZM34.4373 39.957C31.89 41.6197 29.7672 43.8552 28.2385 46.4849C27.5619 46.3977 26.8791 46.343 26.1964 46.3201C26.6713 44.6976 26.9799 43.031 27.1174 41.346C29.2858 39.9536 31.9095 39.4558 34.4373 39.957ZM22.5287 49.7334C22.5287 49.1644 22.5773 48.5964 22.674 48.0356C23.1266 47.9722 23.5818 47.924 24.0396 47.8909C23.6311 48.9276 23.1493 49.9339 22.5976 50.902C22.5518 50.5142 22.5288 50.124 22.5287 49.7334ZM25.4173 42.7243C25.2377 43.9445 24.962 45.1486 24.5925 46.3254C24.0909 46.3457 23.5889 46.3828 23.0894 46.4378C23.5808 45.0429 24.3759 43.7745 25.4173 42.7243ZM23.0902 53.0313C24.1583 51.409 25.0333 49.6675 25.6974 47.8423C26.288 47.8489 26.8796 47.8818 27.4678 47.9404C26.1308 50.7304 25.4796 53.7994 25.5685 56.8918C24.4541 55.8146 23.6057 54.4929 23.0902 53.0313ZM32.8129 59.1452L33.2725 59.6702C33.0155 59.6899 32.7568 59.6999 32.4966 59.7001C30.6164 59.7022 28.7745 59.1694 27.1859 58.1639C26.8341 54.7191 27.4877 51.2462 29.0678 48.1649C29.7317 48.2853 30.3891 48.4389 31.0376 48.6252C30.4835 49.7286 30.1954 50.9463 30.1963 52.181C30.1962 54.7426 31.126 57.2172 32.8129 59.1452Z" fill="#FCC21D"/>
<path d="M50.8991 51.2666C49.9576 51.2659 49.0327 51.5144 48.2184 51.9869C45.652 50.5033 42.3688 51.3808 40.885 53.9469C39.4012 56.5129 40.2788 59.7957 42.8451 61.2793C44.5072 62.2401 46.556 62.2402 48.2181 61.2795C50.785 62.7606 54.0668 61.8806 55.5481 59.314C57.0294 56.7474 56.1493 53.466 53.5823 51.9849C52.7665 51.5142 51.8411 51.2665 50.8991 51.2666ZM54.7176 56.3004L54.5084 56.0913C53.3622 54.945 51.5036 54.9449 50.3572 56.0909C50.3571 56.091 50.357 56.0911 50.3569 56.0913C49.8094 56.6387 48.9218 56.6387 48.3744 56.0913C48.3743 56.0913 48.3743 56.0912 48.3742 56.0912L47.3853 55.1024C48.2303 53.1619 50.4885 52.2737 52.4293 53.1186C53.7178 53.6795 54.5959 54.9005 54.7176 56.3004H54.7176ZM45.5318 52.8C46.001 52.7996 46.4664 52.8855 46.9046 53.0535C46.2573 53.7734 45.8173 54.6555 45.6316 55.6056C45.3962 55.7372 45.1802 55.9006 44.9895 56.0912C44.4421 56.6386 43.5545 56.6387 43.007 56.0913C43.007 56.0912 43.0069 56.0912 43.0069 56.0912L42.0179 55.1024C42.628 53.7053 44.0072 52.8017 45.5318 52.8ZM41.7133 56.9662L41.9225 57.1754C42.9074 58.1599 44.4484 58.3174 45.6121 57.5524C45.7844 58.5432 46.2324 59.4655 46.9048 60.2134C44.9264 60.9703 42.709 59.9803 41.952 58.0022C41.8247 57.6696 41.7444 57.321 41.7133 56.9662ZM50.8991 60.4666C48.912 60.464 47.2554 58.9454 47.0807 56.9662L47.2898 57.1754C48.4361 58.3216 50.2946 58.3218 51.441 57.1757C51.4411 57.1756 51.4412 57.1755 51.4413 57.1754C51.9888 56.628 52.8764 56.6279 53.4238 57.1753C53.4239 57.1754 53.4239 57.1754 53.424 57.1755L54.4129 58.1643C53.8028 59.5613 52.4237 60.4649 50.8991 60.4666Z" fill="#FCC21D"/>
</svg>
