<svg width="83" height="83" viewBox="0 0 83 83" fill="none" xmlns="http://www.w3.org/2000/svg">
<circle cx="41.5" cy="41.5" r="40.5" stroke="#FCC21D" stroke-width="2"/>
<path d="M62.9966 31.9999C62.9967 31.7682 62.8847 31.546 62.6835 31.4144L42.3835 18.1143C42.1511 17.9619 41.849 17.9619 41.6165 18.1143L21.3165 31.4144C21.1153 31.546 21.0033 31.7682 21.0034 31.9999H21V59.3C21 59.6866 21.3131 60 21.7 60H27.3C27.6869 60 28 59.6866 28 59.3V36.8999H56V59.3C56 59.6866 56.3131 60 56.7 60H62.3C62.6869 60 63 59.6866 63 59.3V31.9999H62.9966ZM42 19.5366L59.9546 31.2999H24.0454L42 19.5366ZM61.6 58.6H57.4V36.1999C57.4 35.8133 57.0869 35.4999 56.7 35.4999H27.3C26.9131 35.4999 26.6 35.8133 26.6 36.1999V58.6H22.4V32.6999H61.6V58.6Z" fill="#FCC21D"/>
<path d="M60.2 37.5999H58.8V41.7999H60.2V37.5999Z" fill="#FCC21D"/>
<path d="M25.2 37.5999H23.8V41.7999H25.2V37.5999Z" fill="#FCC21D"/>
<path d="M53.2 50.8999V49.4999H51.7514C51.4051 46.7419 49.0502 44.5999 46.2 44.5999H37.8C34.9498 44.5999 32.5949 46.7419 32.2487 49.4999H30.8V50.8999H32.2V51.7289C31.387 52.0188 30.8 52.7885 30.8 53.6999V56.4999V57.8999C30.8 59.0579 31.742 59.9999 32.9 59.9999H34.3C35.458 59.9999 36.4 59.0579 36.4 57.8999V57.1999H47.6V57.8999C47.6 59.0579 48.542 59.9999 49.7 59.9999H51.1C52.258 59.9999 53.2 59.0579 53.2 57.8999V56.4999V53.6999C53.2 52.7885 52.6131 52.0188 51.8 51.7289V50.8999H53.2ZM33.6 50.1999C33.6 47.8838 35.484 45.9999 37.8 45.9999H46.2C48.516 45.9999 50.4 47.8838 50.4 50.1999V51.5999H33.6V50.1999ZM35 57.8999C35 58.2858 34.6862 58.5999 34.3 58.5999H32.9C32.5138 58.5999 32.2 58.2858 32.2 57.8999V57.1999H35V57.8999ZM51.8 57.8999C51.8 58.2858 51.4862 58.5999 51.1 58.5999H49.7C49.3138 58.5999 49 58.2858 49 57.8999V57.1999H51.8V57.8999ZM51.8 55.0999V55.7999H48.3H35.7H32.2V55.0999H34.3V53.6999H32.2C32.2 53.314 32.5138 52.9999 32.9 52.9999H51.1C51.4862 52.9999 51.8 53.314 51.8 53.6999H49.7V55.0999H51.8Z" fill="#FCC21D"/>
<path d="M54.6 38.2998H29.4C29.0131 38.2998 28.7 38.6132 28.7 38.9998V41.7998C28.7 42.1864 29.0131 42.4998 29.4 42.4998H54.6C54.9869 42.4998 55.3 42.1864 55.3 41.7998V38.9998C55.3 38.6132 54.9869 38.2998 54.6 38.2998ZM53.9 41.0998H30.1V39.6998H53.9V41.0998Z" fill="#FCC21D"/>
</svg>
