<svg width="30" height="31" viewBox="0 0 30 31" fill="none" xmlns="http://www.w3.org/2000/svg">
<path fill-rule="evenodd" clip-rule="evenodd" d="M6.71053 13.2679C4.09444 13.2679 1.97368 15.3886 1.97368 18.0047C1.97368 20.6208 4.09444 22.7416 6.71053 22.7416C9.32661 22.7416 11.4474 20.6208 11.4474 18.0047C11.4474 15.3886 9.32661 13.2679 6.71053 13.2679ZM1.5 18.0047C1.5 15.127 3.83283 12.7942 6.71053 12.7942C9.58822 12.7942 11.9211 15.127 11.9211 18.0047C11.9211 20.8824 9.58822 23.2152 6.71053 23.2152C3.83283 23.2152 1.5 20.8824 1.5 18.0047Z" fill="#12A33B"/>
<path fill-rule="evenodd" clip-rule="evenodd" d="M23.2902 13.2679C20.6742 13.2679 18.5534 15.3886 18.5534 18.0047C18.5534 20.6208 20.6742 22.7416 23.2902 22.7416C25.9063 22.7416 28.0271 20.6208 28.0271 18.0047C28.0271 15.3886 25.9063 13.2679 23.2902 13.2679ZM18.0797 18.0047C18.0797 15.127 20.4125 12.7942 23.2902 12.7942C26.1679 12.7942 28.5008 15.127 28.5008 18.0047C28.5008 20.8824 26.1679 23.2152 23.2902 23.2152C20.4125 23.2152 18.0797 20.8824 18.0797 18.0047Z" fill="#12A33B"/>
<path fill-rule="evenodd" clip-rule="evenodd" d="M20.4472 9.94873L14.5599 18.475H6.23669L11.778 12.2643L20.4472 9.94873ZM12.0284 12.6943L7.29986 17.9941H14.3191L19.3241 10.7456L12.0284 12.6943Z" fill="#12A33B"/>
<path fill-rule="evenodd" clip-rule="evenodd" d="M10.4834 9.00195L14.7634 18.2725L14.3065 18.4756L10.0266 9.20511L10.4834 9.00195Z" fill="#12A33B"/>
<path fill-rule="evenodd" clip-rule="evenodd" d="M13.3431 9.47564H8.60626V9.00195H13.3431V9.47564Z" fill="#12A33B"/>
<path fill-rule="evenodd" clip-rule="evenodd" d="M22.4223 7.10815L22.5968 7.53361L19.6881 8.48108L23.7634 17.839L23.2894 18.0029L19.0266 8.21426L22.4223 7.10815Z" fill="#12A33B"/>
</svg>
