<svg width="30" height="31" viewBox="0 0 30 31" fill="none" xmlns="http://www.w3.org/2000/svg">
<path fill-rule="evenodd" clip-rule="evenodd" d="M4.55468 3.68452C4.38783 3.6412 4.22557 3.7363 4.18209 3.90151L4.18185 3.90242L4.18185 3.90242L3.03137 8.20155L3.03121 8.20217C2.973 8.4267 3.10996 8.67186 3.34614 8.74432L3.34714 8.74462L22.8638 14.4679L22.8649 14.4682L22.866 14.4685C23.1173 14.545 23.3887 14.447 23.5305 14.218L23.5316 14.2162L26.1815 10.0218L26.1815 10.0217C26.2814 9.8635 26.1972 9.64071 26.0109 9.58991L26.0104 9.58977L4.55576 3.6848L4.55468 3.68452ZM3.7429 3.78539C3.85096 3.37584 4.26334 3.1381 4.67137 3.24548L4.6726 3.2458L4.67384 3.24614L26.1305 9.15164L26.1308 9.15173C26.6106 9.28281 26.829 9.84724 26.5656 10.2643L26.5656 10.2644L26.5088 10.3542L27.2145 10.6957L27.2179 10.6974L27.2213 10.6991C27.6124 10.905 27.7839 11.3827 27.5934 11.7848L27.5926 11.7866L27.5917 11.7883L24.7449 17.5425L24.7436 17.545L24.7423 17.5476C24.5365 17.9386 24.0588 18.1101 23.6566 17.9196L23.6549 17.9188L23.6531 17.9179L22.5286 17.3614L22.2927 18.2113L22.2923 18.2129C22.1808 18.6329 21.7442 18.8422 21.3611 18.7358L21.3595 18.7354L21.3579 18.7349L15.2474 16.9401L14.7299 18.7043L14.666 18.9223L14.448 18.8583L13.154 18.4787V22.0451C13.154 23.1397 12.28 24.0137 11.1855 24.0137H6.26411V24.5123C6.27989 26.1696 4.94937 27.4814 3.31129 27.4814H2.87216H2.64502V27.2542V18.5018V18.2746H2.87216H3.31129C4.95183 18.2746 6.26411 19.6037 6.26411 21.2275V21.9089H10.7615C11.0752 21.9089 11.3218 21.6623 11.3218 21.3486V17.9412L9.82718 17.5028L9.60922 17.4389L9.67316 17.2209L10.1912 15.455L3.52267 13.4964C3.10388 13.3841 2.89534 12.9481 3.00158 12.5657L3.00201 12.5641L3.00246 12.5626L3.93223 9.38959L3.21709 9.17988L3.21598 9.17956L3.21487 9.17922C2.75532 9.03936 2.46879 8.55843 2.5918 8.08688L2.59216 8.0855L2.59217 8.0855L3.74277 3.7859L3.7429 3.78539ZM22.6523 16.9158L23.8527 17.5098C24.025 17.5904 24.2418 17.5204 24.3391 17.3382L27.1836 11.5888C27.2641 11.4167 27.1944 11.2003 27.0128 11.1028L26.2646 10.7407L23.9167 14.4571L23.9161 14.4582C23.7518 14.7229 23.4885 14.889 23.202 14.9352L22.6523 16.9158ZM22.7349 14.9035L22.739 14.9047L21.8542 18.0928L21.8538 18.0943L21.8534 18.0957C21.8129 18.2497 21.6453 18.3425 21.4841 18.2985L3.64787 13.0597L3.64478 13.0588L3.64167 13.0579C3.48772 13.0174 3.3949 12.8498 3.43892 12.6886L4.36815 9.51743L22.7338 14.9031L22.7349 14.9035ZM11.776 18.0745L12.6997 18.3455V22.0451C12.6997 22.8888 12.0292 23.5594 11.1855 23.5594H6.26411V22.3632H10.7615C11.3261 22.3632 11.776 21.9132 11.776 21.3486V18.0745ZM14.3579 18.3585L11.776 17.6011V17.5932H11.7494L10.173 17.1308L10.6206 15.6051L14.8055 16.8327L14.3579 18.3585ZM3.0993 18.7289V27.0271H3.31129C4.70137 27.0271 5.82371 25.9166 5.80984 24.5157L5.80983 24.5145V24.5134V21.2275C5.80983 19.853 4.69929 18.7289 3.31129 18.7289H3.0993Z" fill="#12A33B"/>
</svg>
