<svg width="30" height="31" viewBox="0 0 30 31" fill="none" xmlns="http://www.w3.org/2000/svg">
<path fill-rule="evenodd" clip-rule="evenodd" d="M7.34136 3.39413C5.85564 3.39413 4.64942 4.56519 4.64942 6.00758V26.7648H20.1426V6.00758C20.1426 4.56519 18.9364 3.39413 17.4507 3.39413H7.34136ZM20.4331 27.0468H20.7236V6.00758C20.7236 4.25367 19.2573 2.83008 17.4507 2.83008H7.34136C5.53477 2.83008 4.06842 4.25367 4.06842 6.00758V27.3288H20.4331V27.0468Z" fill="#12A33B"/>
<path fill-rule="evenodd" clip-rule="evenodd" d="M22.0197 27.3287H2.75V26.7646H22.0197V27.3287Z" fill="#12A33B"/>
<path fill-rule="evenodd" clip-rule="evenodd" d="M8.52263 6.70712C8.10207 6.70712 7.76734 7.0321 7.76734 7.44039V13.0245C7.76734 13.4328 8.10207 13.7578 8.52263 13.7578H16.2692C16.667 13.7578 17.008 13.4351 17.0245 13.0381V7.44039C17.0245 7.03209 16.6898 6.70712 16.2692 6.70712H8.52263ZM7.18634 7.44039C7.18634 6.72058 7.7812 6.14307 8.52263 6.14307H16.2692C17.0107 6.14307 17.6055 6.72058 17.6055 7.44039V13.0482L17.6053 13.053C17.5808 13.7445 16.9932 14.3218 16.2692 14.3218H8.52263C7.7812 14.3218 7.18634 13.7443 7.18634 13.0245V7.44039Z" fill="#12A33B"/>
<path fill-rule="evenodd" clip-rule="evenodd" d="M25.6035 11.3091V13.3209C25.6035 14.2246 25.9609 15.0739 26.6223 15.7161C27.0246 16.1066 27.2497 16.6292 27.2497 17.1752V21.0672C27.2497 22.2571 26.2675 23.2106 25.0419 23.2106C23.8163 23.2106 22.8341 22.2571 22.8341 21.0672V18.341C22.8341 17.049 21.7635 16.0095 20.4327 16.0095V15.4455C22.0843 15.4455 23.4151 16.7375 23.4151 18.341V21.0672C23.4151 21.9455 24.1372 22.6466 25.0419 22.6466C25.9466 22.6466 26.6687 21.9455 26.6687 21.0672V17.1752C26.6687 16.7812 26.5065 16.4013 26.2115 16.1149C25.4399 15.3658 25.0225 14.3725 25.0225 13.3209V11.3091H25.6035Z" fill="#12A33B"/>
<path fill-rule="evenodd" clip-rule="evenodd" d="M23.395 9.84663V5.48462H23.976V9.84663C23.976 10.4994 24.5238 11.0311 25.1961 11.0311C25.8684 11.0311 26.4162 10.4994 26.4162 9.84663V5.48462H26.9972V9.84663C26.9972 10.8109 26.1893 11.5952 25.1961 11.5952C24.2029 11.5952 23.395 10.8109 23.395 9.84663Z" fill="#12A33B"/>
<path fill-rule="evenodd" clip-rule="evenodd" d="M26.9402 7.60141H23.6866V7.03735H26.9402V7.60141Z" fill="#12A33B"/>
<path fill-rule="evenodd" clip-rule="evenodd" d="M12.1347 15.8887L12.6594 16.1309L11.1719 19.1685H14.6215L12.6975 23.0511L12.174 22.8066L13.6973 19.7325H10.2524L12.1347 15.8887Z" fill="#12A33B"/>
</svg>
