<svg width="30" height="31" viewBox="0 0 30 31" fill="none" xmlns="http://www.w3.org/2000/svg">
<path fill-rule="evenodd" clip-rule="evenodd" d="M14.864 3.21973L2.05166 8.98699V27.0086H2.55946V9.31528L14.8662 3.7756L27.4415 9.31671V27.0086H27.9493V8.98555L14.864 3.21973ZM17.9793 9.82835C18.9473 9.82835 19.8029 10.3119 20.2102 11.0661L23.0205 16.2604H6.65832L9.46757 11.068L9.46804 11.0672C9.87659 10.3265 10.7344 9.82835 11.6995 9.82835H17.9793ZM6.08096 16.2604L9.02188 10.8247L9.02282 10.823C9.52848 9.90529 10.5662 9.32056 11.6995 9.32056H17.9793C19.1101 9.32056 20.1502 9.88641 20.657 10.8247L20.6571 10.8249L23.5979 16.2604H25.0376V23.4542H23.9374V25.4177C23.9374 26.4381 23.1128 27.2627 22.0924 27.2627C21.072 27.2627 20.2474 26.4381 20.2474 25.4177V23.4542H9.43149V25.4177C9.43149 26.4381 8.6069 27.2627 7.5865 27.2627C6.56609 27.2627 5.7415 26.4381 5.7415 25.4177V23.4542H4.64115V16.2604H6.08096ZM6.2493 23.4542H8.92369V25.4177C8.92369 26.1577 8.32645 26.7549 7.5865 26.7549C6.84654 26.7549 6.2493 26.1577 6.2493 25.4177V23.4542ZM5.7415 22.9464H5.14894V16.7682H5.80623H23.8726H24.5298V22.9464H23.9374H20.2474H9.43149H5.7415ZM23.4296 25.4177V23.4542H20.7552V25.4177C20.7552 26.1577 21.3525 26.7549 22.0924 26.7549C22.8324 26.7549 23.4296 26.1577 23.4296 25.4177ZM20.4336 18.7148C21.0599 18.7148 21.5677 19.2225 21.5677 19.8489C21.5677 20.4752 21.0599 20.9829 20.4336 20.9829C19.8073 20.9829 19.2995 20.4752 19.2995 19.8489C19.2995 19.2225 19.8073 18.7148 20.4336 18.7148ZM22.0755 19.8489C22.0755 18.9421 21.3404 18.207 20.4336 18.207C19.5268 18.207 18.7917 18.9421 18.7917 19.8489C18.7917 20.7556 19.5268 21.4907 20.4336 21.4907C21.3404 21.4907 22.0755 20.7556 22.0755 19.8489ZM10.3962 19.8489C10.3962 19.2225 9.88843 18.7148 9.26209 18.7148C8.63576 18.7148 8.12802 19.2225 8.12802 19.8489C8.12802 20.4752 8.63576 20.9829 9.26209 20.9829C9.88843 20.9829 10.3962 20.4752 10.3962 19.8489ZM9.26209 18.207C10.1689 18.207 10.904 18.9421 10.904 19.8489C10.904 20.7556 10.1689 21.4907 9.26209 21.4907C8.35531 21.4907 7.62022 20.7556 7.62022 19.8489C7.62022 18.9421 8.35531 18.207 9.26209 18.207Z" fill="#12A33B"/>
</svg>
