<svg width="30" height="31" viewBox="0 0 30 31" fill="none" xmlns="http://www.w3.org/2000/svg">
<path fill-rule="evenodd" clip-rule="evenodd" d="M19.7868 3.35352C18.1446 3.35352 16.7989 4.68133 16.7989 6.34138C16.7989 6.73467 16.8767 7.12075 17.0218 7.46924C16.9689 7.46698 16.916 7.46584 16.8632 7.46584C14.5133 7.46584 12.6063 9.37287 12.6063 11.7227C12.6063 12.9824 13.1587 14.1231 14.0271 14.893C13.6131 15.4799 13.3612 16.1992 13.3612 16.9756C13.3612 18.9721 14.9791 20.59 16.9756 20.59C18.0682 20.59 19.0479 20.1081 19.7066 19.3399V26.3247H13.3614V24.3648H13.9236C14.8937 24.3648 15.6585 23.5806 15.6585 22.6299C15.6585 21.6793 14.8937 20.895 13.9236 20.895H4.75119C3.80055 20.895 3.0163 21.6599 3.0163 22.6299C3.0163 23.5806 3.78111 24.3648 4.75119 24.3648H5.32954V26.3247H4.04444V26.8066H24.2366V26.3247H20.1885V19.5729C20.9074 20.2033 21.8462 20.59 22.8871 20.59C25.1386 20.59 26.9812 18.766 26.9833 16.4976C27.0144 15.5003 26.6256 14.5552 26.0056 13.8393C26.4487 13.1703 26.7103 12.3616 26.7103 11.4818C26.7103 9.19559 24.9052 7.32857 22.6434 7.22906C22.7314 6.94757 22.7746 6.64738 22.7746 6.34138C22.7746 4.69923 21.4468 3.35352 19.7868 3.35352ZM20.1885 18.8962C20.8525 19.6376 21.8081 20.108 22.8871 20.108C24.8751 20.108 26.5014 18.4964 26.5014 16.4937V16.4898L26.5015 16.4859C26.5313 15.5623 26.1435 14.6754 25.5238 14.0255L25.3847 13.8796L25.5038 13.7169C25.9564 13.0984 26.2283 12.3287 26.2283 11.4818C26.2283 9.39807 24.5371 7.7068 22.4534 7.7068H21.9111L22.0752 7.36225C22.2187 7.0609 22.2927 6.71139 22.2927 6.34138C22.2927 4.96354 21.1788 3.83543 19.7868 3.83543C18.4089 3.83543 17.2808 4.94931 17.2808 6.34138C17.2808 6.81153 17.4133 7.26406 17.6444 7.6251L17.9367 8.08181L17.4018 7.99267C17.222 7.9627 17.0425 7.94776 16.8632 7.94776C14.7794 7.94776 13.0882 9.63902 13.0882 11.7227C13.0882 12.9158 13.647 13.9875 14.5065 14.6661L14.6975 14.8168L14.5448 15.0063C14.1111 15.5448 13.8432 16.2311 13.8432 16.9756C13.8432 18.7059 15.2453 20.108 16.9756 20.108C18.0799 20.108 19.0484 19.5415 19.5997 18.6773L19.7066 18.5096V17.2362L16.1149 13.6602L16.4549 13.3187L19.7066 16.5562V13.0433L18.3155 11.6521L18.6562 11.3114L19.7066 12.3617V10.3093H20.1885V15.331L22.7323 12.7734L23.074 13.1133L20.1885 16.0144V18.8962ZM4.75119 21.377C4.06332 21.377 3.49821 21.9294 3.49821 22.6299C3.49821 23.3178 4.05063 23.8829 4.75119 23.8829H13.9236C14.6242 23.8829 15.1766 23.3178 15.1766 22.6299C15.1766 21.9421 14.6242 21.377 13.9236 21.377H4.75119ZM12.8795 24.3648V26.3247H5.81146V24.3648H12.8795Z" fill="#12A33B"/>
</svg>
