<svg width="30" height="30" viewBox="0 0 30 30" fill="none" xmlns="http://www.w3.org/2000/svg">
<path fill-rule="evenodd" clip-rule="evenodd" d="M11.4063 3.69295L12.4769 2.37036L12.8443 2.66772L11.773 3.991L11.7725 3.99169C11.3607 4.4965 11.4019 5.2401 11.8643 5.68925C12.5038 6.31047 12.5575 7.29732 12.0117 7.9894L12.0111 7.99009L10.9095 9.40654L10.5364 9.11639L11.6392 7.69859L11.6402 7.69724L11.6402 7.69725C12.039 7.1921 11.998 6.47804 11.535 6.02824C10.8947 5.40628 10.8414 4.38575 11.406 3.69331L11.4063 3.69295ZM5.02024 11.3409C5.02024 10.8728 5.4028 10.4902 5.87092 10.4902H24.1448C24.6119 10.4902 24.9938 10.8711 24.9955 11.3378C24.9813 11.8128 24.5928 12.1916 24.1448 12.1916H5.87092C5.4028 12.1916 5.02024 11.809 5.02024 11.3409ZM5.87092 10.0176C5.14179 10.0176 4.54764 10.6118 4.54764 11.3409C4.54764 12.0701 5.14179 12.6642 5.87092 12.6642H6.03149C6.04434 13.1639 6.09782 13.6533 6.18875 14.1293H3.53943V14.6019H6.29236C6.91836 17.1283 8.61128 19.2292 10.8674 20.401L7.48925 27.1572H6.04421V27.6298H12.5188V27.1572H8.01764L9.90804 23.3764H20.0919L21.9823 27.1572H15.2757V27.6298H24.003V27.1572H22.5107L19.1358 20.4074C21.3982 19.237 23.0962 17.1329 23.7233 14.6019H26.4605V14.1293H23.827C23.9179 13.6533 23.9714 13.1639 23.9842 12.6642H24.1448C24.8615 12.6642 25.449 12.068 25.468 11.3471L25.4681 11.344V11.3409C25.4681 10.6118 24.8739 10.0176 24.1448 10.0176H5.87092ZM19.8556 22.9038L18.7104 20.6135C17.5821 21.1235 16.3287 21.4073 15.0079 21.4073C13.682 21.4073 12.4241 21.1213 11.2924 20.6076L10.1443 22.9038H19.8556ZM6.50426 12.6642C6.62899 17.2603 10.3811 20.9347 15.0079 20.9347C19.6346 20.9347 23.3867 17.2603 23.5115 12.6642H6.50426ZM15.7851 2.37036L14.7145 3.69295L14.7142 3.69331C14.1496 4.38575 14.2029 5.40628 14.8432 6.02824C15.3062 6.47804 15.3472 7.1921 14.9484 7.69724L14.9474 7.69859L13.8446 9.11639L14.2177 9.40654L15.3193 7.99009L15.3199 7.9894C15.8657 7.29732 15.812 6.31047 15.1725 5.68925C14.7101 5.2401 14.6689 4.4965 15.0807 3.99169L15.0812 3.991L16.1525 2.66772L15.7851 2.37036ZM18.0227 3.69295L19.0933 2.37036L19.4607 2.66772L18.3894 3.991L18.3889 3.99169C17.9771 4.4965 18.0183 5.2401 18.4807 5.68925C19.1202 6.31047 19.1739 7.29732 18.6281 7.9894L18.6275 7.99009L17.5259 9.40654L17.1528 9.11639L18.2556 7.69859L18.2566 7.69724C18.6554 7.1921 18.6144 6.47804 18.1514 6.02824C17.5111 5.40628 17.4578 4.38575 18.0224 3.69331L18.0227 3.69295Z" fill="#12A33B"/>
</svg>
