<svg width="30" height="30" viewBox="0 0 30 30" fill="none" xmlns="http://www.w3.org/2000/svg">
<path fill-rule="evenodd" clip-rule="evenodd" d="M27.3291 8.36011L20.7677 3.20801L14.2064 8.36011H17.0215V14.6002C16.9734 14.602 16.918 14.6049 16.8563 14.6095C16.6235 14.6271 16.2986 14.6693 15.9269 14.7678C15.4914 14.8832 14.9892 15.0767 14.4955 15.4002C14.6594 14.9738 14.7626 14.5092 14.7626 14.0621C14.7626 12.1019 13.2149 10.5012 11.2757 10.4159C11.3511 10.1745 11.3882 9.91712 11.3882 9.65476C11.3882 8.24678 10.2497 7.09297 8.82641 7.09297C7.41843 7.09297 6.26462 8.23143 6.26462 9.65476C6.26462 9.99196 6.33135 10.323 6.45572 10.6218C6.4104 10.6198 6.36506 10.6189 6.31972 10.6189C4.30494 10.6189 2.66986 12.2539 2.66986 14.2687C2.66986 15.3488 3.14357 16.3268 3.88806 16.9869C3.53313 17.4901 3.31719 18.1068 3.31719 18.7725C3.31719 20.4843 4.70436 21.8714 6.41613 21.8714C7.34525 21.8714 8.17907 21.4651 8.74372 20.8158V21.9861L8.19504 22.6436L7.45603 23.5291L7.45582 23.5293L7.45445 23.531L7.45368 23.5319L7.45357 23.5321L7.45338 23.5323L7.45291 23.5329L7.44728 23.5395C7.44169 23.5459 7.43243 23.5563 7.41937 23.5702C7.39326 23.5978 7.352 23.6391 7.29466 23.6895C7.17999 23.7903 7.00104 23.9277 6.7502 24.0662C6.24978 24.3424 5.45765 24.6258 4.30891 24.6258H4.10231V26.6514L4.29584 26.6638L4.29663 26.6639L4.29857 26.664L4.30545 26.6644L4.33089 26.6657C4.35291 26.6667 4.38488 26.668 4.42575 26.6692C4.50748 26.6716 4.62495 26.6733 4.76979 26.6711C5.05913 26.6667 5.45941 26.6465 5.90314 26.583C6.78098 26.4573 7.8707 26.1566 8.58765 25.4323L8.58817 25.4317C8.63701 25.3821 8.68893 25.3281 8.74372 25.2703V26.3752H7.90361V26.7884H25.2163V26.7882H25.9463V16.4446H24.5967V8.36011H27.3291ZM15.6028 26.3752V17.9321C15.6028 17.6661 15.6727 17.4153 15.7957 17.198C15.702 17.2431 15.6169 17.2902 15.5401 17.3371C15.3563 17.4495 15.2203 17.5613 15.1314 17.6438C15.087 17.6849 15.0545 17.7187 15.0337 17.7413C15.0233 17.7526 15.0158 17.7611 15.0113 17.7664L15.0085 17.7697L15.0067 17.7718L15.0066 17.772L15.0065 17.7721L15.0064 17.7722L15.0062 17.7724L15.0061 17.7726L15.0057 17.773L14.9518 17.8404L14.7956 18.0352C14.6602 18.2037 14.4651 18.4463 14.2261 18.7424C13.7481 19.3345 13.0944 20.1407 12.3915 20.9969C11.2708 22.3621 10.0193 23.8617 9.15691 24.821V26.3752H15.6028ZM4.30891 26.4576C4.2957 26.6638 4.29576 26.6638 4.29584 26.6638L4.30891 26.4576ZM13.6455 16.1163L13.6473 16.1176C13.5935 16.1757 13.5405 16.236 13.4883 16.2986C12.7653 17.1663 11.2572 18.9739 9.92979 20.5647L9.67015 20.8759C9.48028 20.741 9.30797 20.5843 9.15691 20.4096V17.9493L11.6444 15.4617L11.3523 15.1696L9.15691 17.3649V13.0568H8.74372V14.8166L7.84312 13.916L7.55095 14.2082L8.74372 15.4009V18.4113L5.97004 15.6376L5.67787 15.9298L8.74372 18.9957V20.1097L8.66601 20.2315C8.19334 20.9725 7.36291 21.4583 6.41613 21.4583C4.93255 21.4583 3.73038 20.2561 3.73038 18.7725C3.73038 18.1342 3.96011 17.5457 4.33201 17.0841L4.46289 16.9216L4.29914 16.7923C3.56216 16.2105 3.08305 15.2916 3.08305 14.2687C3.08305 12.4821 4.53314 11.0321 6.31972 11.0321C6.47346 11.0321 6.62737 11.0449 6.78158 11.0706L7.24017 11.147L6.98955 10.7554C6.79144 10.4459 6.67781 10.0579 6.67781 9.65476C6.67781 8.4612 7.64505 7.50616 8.82641 7.50616C10.02 7.50616 10.975 8.4734 10.975 9.65476C10.975 9.972 10.9115 10.2717 10.7885 10.53L10.6478 10.8255H11.1127C12.8993 10.8255 14.3494 12.2755 14.3494 14.0621C14.3494 14.7822 14.0375 15.5806 13.6455 16.1163ZM9.15691 20.9956C9.23614 21.0655 9.31883 21.1317 9.40471 21.1939L9.15691 21.4909V20.9956ZM17.4347 8.36011H24.1835V16.4446H17.4347V8.36011ZM24.5967 7.94692H26.1338L20.7677 3.73336L15.4017 7.94692H17.0215V7.94679H24.5967V7.94692ZM17.228 16.8854C17.0508 16.8854 16.8846 16.8977 16.7292 16.9194C16.3103 17.0677 16.016 17.4672 16.016 17.9321V26.375H25.5332V16.8578H24.5967V16.8717H17.4346V16.8854H17.228ZM17.0214 15.0137V16.4462C16.8857 16.4523 16.7551 16.4763 16.6319 16.516C16.0759 16.5996 15.641 16.7912 15.3246 16.9846C15.1142 17.1132 14.9566 17.2424 14.8505 17.3408C14.7974 17.39 14.7572 17.4316 14.7295 17.4617C14.7156 17.4767 14.7049 17.4889 14.6974 17.4978L14.6883 17.5085L14.6856 17.5119L14.6846 17.513L14.6842 17.5135L14.6841 17.5137C14.684 17.5138 14.684 17.5138 14.8453 17.6429C14.6839 17.5139 14.6839 17.5139 14.6839 17.514L14.6294 17.582L14.4734 17.7765C14.3382 17.9448 14.1434 18.1871 13.9046 18.4828C13.4271 19.0744 12.7741 19.8796 12.0722 20.7347C10.6653 22.4485 9.0709 24.351 8.29368 25.1419C7.67463 25.7671 6.69857 26.0517 5.84459 26.1739C5.42235 26.2344 5.04014 26.2538 4.7635 26.258C4.66678 26.2594 4.58317 26.259 4.5155 26.2579V25.0361C5.62694 25.0043 6.42191 24.7194 6.94986 24.4279C7.22929 24.2737 7.43254 24.1185 7.5675 23.9998C7.63498 23.9405 7.6854 23.8903 7.71976 23.8539C7.73694 23.8357 7.75011 23.821 7.7594 23.8102L7.77044 23.7973L7.7731 23.794L7.77326 23.7938L7.77388 23.7931L8.51228 22.9083L10.247 20.8294C11.5744 19.2387 13.0826 17.4309 13.8057 16.5631C14.494 15.7372 15.347 15.349 16.0328 15.1672C16.3755 15.0763 16.6748 15.0376 16.8874 15.0216C16.937 15.0178 16.9819 15.0153 17.0214 15.0137ZM20.8091 19.0341C19.478 19.0341 18.3988 20.1132 18.3988 21.4444C18.3988 22.7755 19.478 23.8546 20.8091 23.8546C22.1403 23.8546 23.2194 22.7755 23.2194 21.4444C23.2194 20.1132 22.1403 19.0341 20.8091 19.0341ZM17.9856 21.4444C17.9856 19.885 19.2498 18.6209 20.8091 18.6209C22.3685 18.6209 23.6326 19.885 23.6326 21.4444C23.6326 23.0037 22.3685 24.2678 20.8091 24.2678C19.2498 24.2678 17.9856 23.0037 17.9856 21.4444Z" fill="#12A33B"/>
</svg>
