<svg width="30" height="31" viewBox="0 0 30 31" fill="none" xmlns="http://www.w3.org/2000/svg">
<path fill-rule="evenodd" clip-rule="evenodd" d="M4.03662 23.7119H25.9664V27.6593H4.03662V23.7119ZM4.48631 24.1913V27.1798H25.5167V24.1913H4.48631Z" fill="#12A33B"/>
<path fill-rule="evenodd" clip-rule="evenodd" d="M4.03662 15.8193H25.9664V24.1526H4.03662V15.8193ZM4.48631 16.2814V23.6905H25.5167V16.2814H4.48631Z" fill="#12A33B"/>
<path fill-rule="evenodd" clip-rule="evenodd" d="M27.2813 16.2579H2.72003V15.8193H27.2813V16.2579Z" fill="#12A33B"/>
<path fill-rule="evenodd" clip-rule="evenodd" d="M7.10583 10.4852C7.10583 6.16311 10.6528 2.66016 15.0081 2.66016C19.3784 2.66016 22.9106 6.16325 22.8952 10.4857C22.8952 10.4858 22.8952 10.4859 22.8952 10.486L22.8952 16.2566H7.10583V10.4852ZM15.0081 3.10987C10.902 3.10987 7.55912 6.41264 7.55912 10.4852V15.8069H22.4419V10.4852L22.4419 10.4844C22.4566 6.41233 19.1291 3.10987 15.0081 3.10987Z" fill="#12A33B"/>
<path fill-rule="evenodd" clip-rule="evenodd" d="M7.10583 23.7115V16.2554H7.54443V23.7115H7.10583Z" fill="#12A33B"/>
<path fill-rule="evenodd" clip-rule="evenodd" d="M10.1768 23.7115V16.2554H10.6154V23.7115H10.1768Z" fill="#12A33B"/>
<path fill-rule="evenodd" clip-rule="evenodd" d="M10.1768 18.4483V10.9922H10.6154V18.4483H10.1768Z" fill="#12A33B"/>
<path fill-rule="evenodd" clip-rule="evenodd" d="M19.386 18.4483V10.9922H19.8246V18.4483H19.386Z" fill="#12A33B"/>
<path fill-rule="evenodd" clip-rule="evenodd" d="M13.246 23.7115V16.2554H13.6846V23.7115H13.246Z" fill="#12A33B"/>
<path fill-rule="evenodd" clip-rule="evenodd" d="M16.3169 23.7115V16.2554H16.7555V23.7115H16.3169Z" fill="#12A33B"/>
<path fill-rule="evenodd" clip-rule="evenodd" d="M19.386 23.7115V16.2554H19.8246V23.7115H19.386Z" fill="#12A33B"/>
<path fill-rule="evenodd" clip-rule="evenodd" d="M22.457 23.7115V16.2554H22.8956V23.7115H22.457Z" fill="#12A33B"/>
<path fill-rule="evenodd" clip-rule="evenodd" d="M14.4656 2.75721C14.4656 2.7573 14.4656 2.75741 14.683 2.70861C14.9004 2.65982 14.9004 2.65998 14.9005 2.66018L14.9006 2.66071L14.9009 2.66226L14.902 2.66731C14.9028 2.67154 14.904 2.67747 14.9054 2.68507C14.9083 2.70027 14.9123 2.72213 14.917 2.75027C14.9265 2.80653 14.9389 2.88794 14.9512 2.99141C14.9758 3.19829 15.0003 3.49389 15.0005 3.85351C15.001 4.572 14.9048 5.55099 14.5161 6.58927C13.7325 8.68236 11.7801 10.9638 7.18966 11.8707L7.10583 11.4205C11.5636 10.54 13.3789 8.35295 14.1009 6.42439C14.465 5.45185 14.556 4.53173 14.5555 3.85382C14.5553 3.51523 14.5323 3.23832 14.5095 3.04721C14.4981 2.9517 14.4869 2.87776 14.4786 2.82842C14.4744 2.80375 14.471 2.78525 14.4687 2.77328C14.4676 2.7673 14.4667 2.76295 14.4662 2.76029L14.4657 2.75757L14.4656 2.75721Z" fill="#12A33B"/>
<path fill-rule="evenodd" clip-rule="evenodd" d="M14.6682 2.66018C14.6682 2.65998 14.6683 2.65982 14.8977 2.70861C15.1272 2.75741 15.1272 2.7573 15.1272 2.75721L15.1272 2.75757L15.1266 2.76029C15.126 2.76295 15.1251 2.7673 15.1239 2.77328C15.1215 2.78525 15.1179 2.80375 15.1135 2.82842C15.1048 2.87776 15.0929 2.9517 15.0809 3.04721C15.0568 3.23832 15.0325 3.51523 15.0323 3.85382C15.0318 4.53173 15.1279 5.45185 15.5122 6.42439C16.2743 8.35295 18.1904 10.54 22.8959 11.4205L22.8074 11.8707C17.9619 10.9638 15.9011 8.68236 15.0739 6.58927C14.6636 5.55099 14.5621 4.572 14.5626 3.85351C14.5628 3.49389 14.5886 3.19829 14.6146 2.99141C14.6277 2.88794 14.6407 2.80653 14.6507 2.75027C14.6557 2.72213 14.6599 2.70027 14.663 2.68507C14.6645 2.67747 14.6657 2.67154 14.6666 2.66731L14.6677 2.66226L14.6681 2.66071L14.6682 2.66018Z" fill="#12A33B"/>
</svg>
